# xmcd
#
# Track frame offsets: 
#        150
#        26333
#        49042
#        70154
#        89894
#        119997
#        142046
#        162902
#        180426
#        198631
#        216729
#        232724
#        254725
#
# Disc length: 3655 seconds
#
# Revision: 0
# Processed by: cddbd v1.5.2PL0 Copyright (c) Steve Scherf et al.
# Submitted via: ExactAudioCopy v1.0b3
#
DISCID=cb0e450d
DTITLE=Kool and The Gang - As One
DYEAR=2013
DGENRE=Funk
TTITLE0=Street Kids
TTITLE1=Big Fun
TTITLE2=As One
TTITLE3=Hi De Hi, Hi De Ho
TTITLE4=Let's Go Dancin' (Ooh La, La, La)
TTITLE5=Pretty Baby
TTITLE6=Think It Over
TTITLE7=Big Fun (Single Version)
TTITLE8=Let's Go Dancin' (Ooh, La, La, La) (Single Version)
TTITLE9=Street Kids (Single Version)
TTITLE10=Hi De Hi, Hi De Ho (Single Version)
TTITLE11=Let's Go Dancin' (Ooh, La, La, La) (Us 12" Promotional Dance 
TTITLE11=Remix)
TTITLE12=Street Kids (Us 12" Dance Remix)
EXTD=
EXTT0=
EXTT1=
EXTT2=
EXTT3=
EXTT4=
EXTT5=
EXTT6=
EXTT7=
EXTT8=
EXTT9=
EXTT10=
EXTT11=
EXTT12=
PLAYORDER=
